<svg width="132" height="24" viewBox="0 0 132 24" fill="none" xmlns="http://www.w3.org/2000/svg">
<path d="M74.6825 23.9269C74.0701 23.9269 73.4617 23.6901 72.9965 23.2124L67.0915 17.1489C66.161 16.1935 66.161 14.6378 67.0915 13.6864L70.8611 9.81564C71.3105 9.35424 71.9109 9.09701 72.5471 9.09701C73.1834 9.09701 73.7838 9.35016 74.2331 9.81564L74.9369 10.5384L76.2889 9.15009L69.3939 2.07404C69.0837 1.75555 68.5787 1.75555 68.2685 2.07404L67.1233 3.24998L69.1632 5.34462C70.0937 6.30007 70.0937 7.85574 69.1632 8.81119L65.998 12.0614L62.8328 8.81119C61.9023 7.85574 61.9023 6.30007 62.8328 5.34462L64.8727 3.24998L63.7275 2.07404C63.4253 1.76372 62.9044 1.76372 62.6022 2.07404L55.7071 9.15417L57.0591 10.5424L57.7629 9.81972C58.6934 8.86427 60.2084 8.86427 61.1389 9.81972L64.9085 13.6905C65.3578 14.1519 65.6083 14.7685 65.6083 15.4218C65.6083 16.0751 65.3618 16.6916 64.9085 17.153L59.0075 23.2124C58.077 24.1678 56.566 24.1678 55.6355 23.2124L48.8279 16.2221L46.788 18.3167C45.8655 19.264 44.3585 19.2722 43.428 18.3289L42.8554 17.7491C42.3981 17.2878 42.1476 16.6712 42.1436 16.0138C42.1396 15.3564 42.3901 14.7358 42.8435 14.2744L44.8873 12.1757L43.8415 11.1018C43.5314 10.7833 43.0264 10.7833 42.7162 11.1018L38.1354 15.8056C37.6861 16.267 37.0856 16.5242 36.4494 16.5242H1.06743C0.630031 16.5242 0.272156 16.1567 0.272156 15.7076C0.272156 15.2584 0.630031 14.891 1.06743 14.891H36.4494C36.6602 14.891 36.863 14.8052 37.0101 14.6501L41.5909 9.9463C42.5214 8.99085 44.0364 8.99085 44.9668 9.9463L46.0126 11.0202L50.0884 6.83496C50.5378 6.37357 51.1382 6.11633 51.7744 6.11633C52.4107 6.11633 53.0111 6.36948 53.4604 6.83496L54.5897 7.99457L61.4848 0.91443C61.9341 0.453038 62.5346 0.195801 63.1708 0.195801C63.807 0.195801 64.4075 0.448954 64.8568 0.91443L66.002 2.09037L67.1472 0.91443C68.0777 -0.0410203 69.5927 -0.0410203 70.5231 0.91443L77.4182 7.99457L78.5475 6.83496C78.9968 6.37357 79.5973 6.11633 80.2335 6.11633C80.8697 6.11633 81.4702 6.36948 81.9195 6.83496L85.9953 11.0202L87.0411 9.9463C87.9716 8.99085 89.4826 8.99085 90.4171 9.9463L94.9979 14.6501C95.149 14.8052 95.3478 14.891 95.5625 14.891H130.944C131.382 14.891 131.74 15.2584 131.74 15.7076C131.74 16.1567 131.382 16.5242 130.944 16.5242H95.5625C94.9263 16.5242 94.3259 16.2711 93.8765 15.8056L89.2838 11.1018C88.9736 10.7833 88.4686 10.7833 88.1585 11.1018L87.1127 12.1757L89.1565 14.2744C89.6098 14.7399 89.8564 15.3564 89.8564 16.0138C89.8564 16.6712 89.6019 17.2878 89.1446 17.7491L88.572 18.3289C87.6415 19.2681 86.1345 19.264 85.212 18.3167L83.1721 16.2221L76.3645 23.2124C75.9032 23.686 75.2908 23.9269 74.6825 23.9269ZM72.5471 10.7303C72.3364 10.7303 72.1336 10.816 71.9865 10.9712L68.2168 14.842C67.9067 15.1604 67.9067 15.679 68.2168 15.9975L74.1178 22.0568C74.428 22.3753 74.933 22.3753 75.2431 22.0568L82.0507 15.0665L77.4142 10.3056L76.0662 11.6939L77.7562 13.4292C78.6867 14.3847 78.6867 15.9403 77.7562 16.8958L76.7025 17.9737C75.772 18.9292 74.257 18.9292 73.3265 17.9737L72.2012 16.8182C71.2707 15.8627 71.2707 14.3071 72.2012 13.3516L73.8156 11.6939L73.1118 10.9712C72.9607 10.816 72.7579 10.7303 72.5471 10.7303ZM49.9532 15.0665L56.7608 22.0568C57.071 22.3753 57.576 22.3753 57.8862 22.0568L63.7871 15.9975C63.9382 15.8423 64.0217 15.6382 64.0217 15.4218C64.0217 15.2054 63.9382 14.9971 63.7871 14.846L60.0175 10.9752C59.7073 10.6568 59.2024 10.6568 58.8922 10.9752L58.1884 11.698L59.8028 13.3557C60.7333 14.3112 60.7333 15.8668 59.8028 16.8223L58.6775 17.9778C58.2281 18.4392 57.6277 18.6964 56.9915 18.6964C56.3553 18.6964 55.7548 18.4433 55.3055 17.9778L54.2557 16.8999C53.8064 16.4385 53.5559 15.8219 53.5559 15.1686C53.5559 14.5153 53.8024 13.8988 54.2557 13.4374L55.9457 11.702L54.5937 10.3138L49.9532 15.0665ZM46.0087 13.3312L43.9648 15.4299C43.8137 15.5851 43.7302 15.7892 43.7302 16.0097C43.7302 16.2302 43.8137 16.4344 43.9688 16.5895L44.5414 17.1693C44.8515 17.4837 45.3526 17.4797 45.6627 17.1653L47.7026 15.0706L46.0087 13.3312ZM84.2974 15.0665L86.3373 17.1612C86.6435 17.4756 87.1485 17.4797 87.4586 17.1653L88.0272 16.5855C88.1783 16.4303 88.2618 16.2261 88.2658 16.0057C88.2658 15.7852 88.1823 15.581 88.0312 15.4258L85.9874 13.3271L84.2974 15.0665ZM57.063 12.8453L55.3731 14.5806C55.0629 14.8991 55.0629 15.4177 55.3731 15.7362L56.4228 16.8141C56.725 17.1244 57.246 17.1203 57.5482 16.8141L58.6735 15.6586C58.9836 15.3401 58.9836 14.8215 58.6735 14.5031L57.063 12.8453ZM74.9369 12.8453L73.3225 14.5031C73.0124 14.8215 73.0124 15.3401 73.3225 15.6586L74.4479 16.8141C74.758 17.1326 75.263 17.1326 75.5732 16.8141L76.6229 15.7362C76.9331 15.4177 76.9331 14.8991 76.6229 14.5806L74.9369 12.8453ZM47.134 12.1757L48.824 13.911L53.4604 9.15009L52.3311 7.99048C52.0289 7.68016 51.508 7.68016 51.2058 7.99048L47.134 12.1757ZM78.5356 9.15009L83.1721 13.911L84.862 12.1757L80.7862 7.99048C80.484 7.68016 79.9631 7.68016 79.6609 7.99048L78.5356 9.15009ZM66.002 4.40142L63.9621 6.49606C63.6519 6.81454 63.6519 7.3331 63.9621 7.65158L66.002 9.74622L68.0419 7.65158C68.352 7.3331 68.352 6.81454 68.0419 6.49606L66.002 4.40142Z" fill="white"/>
</svg>
