<svg width="132" height="24" viewBox="0 0 132 24" fill="none" xmlns="http://www.w3.org/2000/svg">
<path d="M74.6825 23.927C74.0701 23.927 73.4617 23.6902 72.9965 23.2125L67.0915 17.149C66.161 16.1936 66.161 14.6379 67.0915 13.6866L70.8611 9.81576C71.3105 9.35437 71.9109 9.09713 72.5471 9.09713C73.1834 9.09713 73.7838 9.35028 74.2331 9.81576L74.9369 10.5385L76.2889 9.15021L69.3939 2.07416C69.0837 1.75568 68.5787 1.75568 68.2685 2.07416L67.1233 3.2501L69.1632 5.34474C70.0937 6.30019 70.0937 7.85586 69.1632 8.81131L65.998 12.0615L62.8328 8.81131C61.9023 7.85586 61.9023 6.30019 62.8328 5.34474L64.8727 3.2501L63.7275 2.07416C63.4253 1.76384 62.9044 1.76384 62.6022 2.07416L55.7071 9.15429L57.0591 10.5426L57.7629 9.81984C58.6934 8.86439 60.2084 8.86439 61.1389 9.81984L64.9085 13.6906C65.3578 14.152 65.6083 14.7686 65.6083 15.4219C65.6083 16.0752 65.3618 16.6917 64.9085 17.1531L59.0075 23.2125C58.077 24.1679 56.566 24.1679 55.6355 23.2125L48.8279 16.2222L46.788 18.3168C45.8655 19.2641 44.3585 19.2723 43.428 18.3291L42.8554 17.7493C42.3981 17.2879 42.1476 16.6713 42.1436 16.0139C42.1396 15.3566 42.3901 14.7359 42.8435 14.2745L44.8873 12.1758L43.8415 11.1019C43.5314 10.7835 43.0264 10.7835 42.7162 11.1019L38.1354 15.8057C37.6861 16.2671 37.0856 16.5243 36.4494 16.5243H1.06743C0.630031 16.5243 0.272156 16.1568 0.272156 15.7077C0.272156 15.2586 0.630031 14.8911 1.06743 14.8911H36.4494C36.6602 14.8911 36.863 14.8053 37.0101 14.6502L41.5909 9.94642C42.5214 8.99097 44.0364 8.99097 44.9668 9.94642L46.0126 11.0203L50.0884 6.83508C50.5378 6.37369 51.1382 6.11645 51.7744 6.11645C52.4107 6.11645 53.0111 6.3696 53.4604 6.83508L54.5897 7.99469L61.4848 0.914552C61.9341 0.45316 62.5346 0.195923 63.1708 0.195923C63.807 0.195923 64.4075 0.449076 64.8568 0.914552L66.002 2.09049L67.1472 0.914552C68.0777 -0.0408982 69.5927 -0.0408982 70.5231 0.914552L77.4182 7.99469L78.5475 6.83508C78.9968 6.37369 79.5973 6.11645 80.2335 6.11645C80.8697 6.11645 81.4702 6.3696 81.9195 6.83508L85.9953 11.0203L87.0411 9.94642C87.9716 8.99097 89.4826 8.99097 90.4171 9.94642L94.9979 14.6502C95.149 14.8053 95.3478 14.8911 95.5625 14.8911H130.944C131.382 14.8911 131.74 15.2586 131.74 15.7077C131.74 16.1568 131.382 16.5243 130.944 16.5243H95.5625C94.9263 16.5243 94.3259 16.2712 93.8765 15.8057L89.2838 11.1019C88.9736 10.7835 88.4686 10.7835 88.1585 11.1019L87.1127 12.1758L89.1565 14.2745C89.6098 14.74 89.8564 15.3566 89.8564 16.0139C89.8564 16.6713 89.6019 17.2879 89.1446 17.7493L88.572 18.3291C87.6415 19.2682 86.1345 19.2641 85.212 18.3168L83.1721 16.2222L76.3645 23.2125C75.9032 23.6861 75.2908 23.927 74.6825 23.927ZM72.5471 10.7304C72.3364 10.7304 72.1336 10.8161 71.9865 10.9713L68.2168 14.8421C67.9067 15.1606 67.9067 15.6791 68.2168 15.9976L74.1178 22.057C74.428 22.3754 74.933 22.3754 75.2431 22.057L82.0507 15.0667L77.4142 10.3057L76.0662 11.694L77.7562 13.4293C78.6867 14.3848 78.6867 15.9404 77.7562 16.8959L76.7025 17.9738C75.772 18.9293 74.257 18.9293 73.3265 17.9738L72.2012 16.8183C71.2707 15.8629 71.2707 14.3072 72.2012 13.3517L73.8156 11.694L73.1118 10.9713C72.9607 10.8161 72.7579 10.7304 72.5471 10.7304ZM49.9532 15.0667L56.7608 22.057C57.071 22.3754 57.576 22.3754 57.8862 22.057L63.7871 15.9976C63.9382 15.8424 64.0217 15.6383 64.0217 15.4219C64.0217 15.2055 63.9382 14.9972 63.7871 14.8462L60.0175 10.9754C59.7073 10.6569 59.2024 10.6569 58.8922 10.9754L58.1884 11.6981L59.8028 13.3558C60.7333 14.3113 60.7333 15.8669 59.8028 16.8224L58.6775 17.9779C58.2281 18.4393 57.6277 18.6966 56.9915 18.6966C56.3553 18.6966 55.7548 18.4434 55.3055 17.9779L54.2557 16.9C53.8064 16.4386 53.5559 15.822 53.5559 15.1687C53.5559 14.5154 53.8024 13.8989 54.2557 13.4375L55.9457 11.7022L54.5937 10.3139L49.9532 15.0667ZM46.0087 13.3313L43.9648 15.4301C43.8137 15.5852 43.7302 15.7894 43.7302 16.0099C43.7302 16.2303 43.8137 16.4345 43.9688 16.5897L44.5414 17.1695C44.8515 17.4839 45.3526 17.4798 45.6627 17.1654L47.7026 15.0707L46.0087 13.3313ZM84.2974 15.0667L86.3373 17.1613C86.6435 17.4757 87.1485 17.4798 87.4586 17.1654L88.0272 16.5856C88.1783 16.4304 88.2618 16.2263 88.2658 16.0058C88.2658 15.7853 88.1823 15.5811 88.0312 15.426L85.9874 13.3272L84.2974 15.0667ZM57.063 12.8454L55.3731 14.5808C55.0629 14.8992 55.0629 15.4178 55.3731 15.7363L56.4228 16.8142C56.725 17.1245 57.246 17.1205 57.5482 16.8142L58.6735 15.6587C58.9836 15.3402 58.9836 14.8217 58.6735 14.5032L57.063 12.8454ZM74.9369 12.8454L73.3225 14.5032C73.0124 14.8217 73.0124 15.3402 73.3225 15.6587L74.4479 16.8142C74.758 17.1327 75.263 17.1327 75.5732 16.8142L76.6229 15.7363C76.9331 15.4178 76.9331 14.8992 76.6229 14.5808L74.9369 12.8454ZM47.134 12.1758L48.824 13.9111L53.4604 9.15021L52.3311 7.9906C52.0289 7.68029 51.508 7.68029 51.2058 7.9906L47.134 12.1758ZM78.5356 9.15021L83.1721 13.9111L84.862 12.1758L80.7862 7.9906C80.484 7.68029 79.9631 7.68029 79.6609 7.9906L78.5356 9.15021ZM66.002 4.40154L63.9621 6.49618C63.6519 6.81466 63.6519 7.33322 63.9621 7.6517L66.002 9.74635L68.0419 7.6517C68.352 7.33322 68.352 6.81466 68.0419 6.49618L66.002 4.40154Z" fill="#CC9900"/>
</svg>
